<?xml version="1.0" encoding="UTF-8"?>
<svg id="Layer_1" xmlns="http://www.w3.org/2000/svg" version="1.1" viewBox="0 0 792 612">
  <!-- Generator: Adobe Illustrator 29.6.1, SVG Export Plug-In . SVG Version: 2.1.1 Build 9)  -->
  <defs>
    <style>
      .st0 {
        fill: #a7a3b6;
      }

      .st1 {
        fill: #101827;
      }

      .st2 {
        fill: #fff;
      }

      .st3 {
        fill: #855fa8;
      }
    </style>
  </defs>
  <path class="st3" d="M266.4,189.5c10.5-6.6,21.4-12.4,32.2-17.5,10.9-5.1,23.1-8.8,33.8-14.1,9.3-4.6,17.9-11,26.8-16.2,33.3-19.2,66.6-38.2,101.6-54.2-10.2-9.8-20.1-18.3-33-24.4-34-16.1-85.2-14.6-122-.5-33.1,32.3-48.4,81.3-39.4,126.9Z"/>
  <path class="st2" d="M513.6,205.6c-.8-.6-1.5-1.2-2-1.5-57.6-38.5-172.4-42.5-225.3,7-37.6,35.2-25.4,75.2-27.1,121.7-2,51.7-17,84.5-27.1,132-4.7,22-3.8,38.8,16.7,49.9.5.3,1.4.6,2.5.9,3.7-.8,7.3-2,10.8-3.7,13.7-6.9,23.4-23.6,39.1-25.6,26.1-3.3,34.7,20.6,50.6,35,28.3,25.5,70.1,25.9,98.9.9,11-9.5,23.1-31.6,36.2-35.2,17.1-4.8,26.8,11.2,40.8,16.9,30.2,12.2,57-17,46.7-46.7-15.6-65.3-27.8-131.6-44-196.7-3.8-15.2-8.9-37.7-16.8-54.8ZM367.3,293.5c-39,9.7-43.7-77.3-7.4-81.2,36-3.9,39.4,73.2,7.4,81.2ZM461.9,294.2c-34.9-.3-35.1-77.7-3.5-82,39.8-5.4,40.4,82.3,3.5,82Z"/>
  <path class="st0" d="M234.7,467c10.5-48.5,26.1-82,28.2-134.9,1.8-47.6-10.9-88.4,28.1-124.4,54.8-50.6,173.8-30.7,233.5,8.6.5.3,1.4-14.8,2.2-14.2-2.8-5.9-5.9-11.2-9.4-15.3-24.5-28.8-70.1-35.3-106.1-33.5-56.6,2.8-153,36.6-182.2,87.1-7.6,13.2-1.5,49.7-1.2,64.2.5,26.4-3.1,62-7,88.1-5.1,34.8-11.9,49.8-19.2,84.1-2.9,13.7.7,22.3,8.5,35.1,8.7,14.4,28.8,10.1,44.5,6.9-1.1-.3,6.7-1.9,6.2-2.2-21.3-11.3-31-27.3-26.1-49.8Z"/>
  <path class="st3" d="M587.7,135.2c25.3-31.4,9.1-52.1-27.6-54.3-45.9-2.7-100.3,18.9-140.5,39.6l-39.2,22.1c49-1.2,105.3,2.8,139.7,41.9,23.5-12.4,50.7-28.3,67.6-49.2Z"/>
  <path class="st1" d="M609,117.8c7.5-35-24.8-52.8-55.1-54.6-29.5-1.7-58.6,5.6-85.8,16.3-17.5-19.7-40.6-34.6-66.3-40.8-14.9-3.6-30.4-4.5-45.7-3.9-2.8.1-7.7,1.5-10.2,1.2-1.5-.1-6-3.8-8-4.8-19.4-9.5-45.3,0-53.9,19.7-.5,1.1-.5,3.2-.9,3.7-.3.4-6.6,3.1-7.9,3.9-40.7,24.1-71,65-80,111.8-4.8,24.9-4.9,61.2,11.8,82,1.1,1.4,5,4.4,5.3,5.6.4,1.5.6,10.6.8,13.2,1.9,45.2-2.1,85.2-11.7,129.3-6,27.4-22.9,74.3-15.2,100.3,10.6,35.9,53.6,47.3,85.6,33,11-4.9,17-12.5,26.2-17.9,13.4-7.9,20.9,8.6,28.5,17.1,41.3,45.5,109.9,45.9,150.6-.6,3.1-3.6,12.2-17.8,15.8-18.6,5.3-1.2,9.9,4.5,13.9,7,24,15.2,51.4,14.3,73.1-4.7,29.6-25.9,18.7-58.9,11.5-92-12.7-58.2-25.4-118.6-40.4-176.2-5-19-10.6-37.9-18-56.1,2.1-.1,4-1.4,5.9-2.3,24.8-13.3,64-42.4,70.2-71.4ZM417.2,64.9c11.4,5.4,20.2,12.9,29.2,21.6-30.9,14.2-60.5,31-89.9,48-7.9,4.6-15.6,10.3-23.8,14.3-9.4,4.6-20.2,8-29.9,12.5-9.6,4.5-19.2,9.6-28.5,15.5-8-40.4,5.6-83.7,34.9-112.3,32.6-12.4,77.9-13.8,108,.5ZM574.4,457.1c10.3,29.7-16.5,58.9-46.7,46.7-14.1-5.7-23.7-21.7-40.8-16.9-13,3.6-25.2,25.7-36.2,35.2-28.8,25-70.6,24.6-98.9-.9-15.9-14.4-24.6-38.3-50.6-35-15.8,2-25.5,18.7-39.1,25.6-3.4,1.7-7.1,3-10.8,3.7-15.2,3.1-31.3-2.1-39.7-16.2-7.5-12.5-4.7-24.1-1.9-37.5,7-33.6,17.7-66.1,22.6-100.2,3.7-25.5,4.3-50.9,3.8-76.8-.3-14.2-4.6-30.2,2.7-43.2,28.1-49.4,108.8-81.3,163.4-84,34.8-1.7,78.7,4.7,102.3,32.8,3.4,4,6.4,9.2,9,15,7.9,17.1,13,39.6,16.8,54.8,16.3,65.2,28.5,131.4,44,196.7ZM518.7,173.8c-29.8-33.7-78.4-37.2-120.6-36.1l33.9-19.1c34.7-17.9,81.7-36.6,121.3-34.2,31.7,1.9,45.7,19.8,23.8,46.9-14.5,18.1-38.1,31.8-58.4,42.5Z"/>
  <path class="st1" d="M359.8,212.2c-36.3,3.9-31.5,90.9,7.4,81.2,32-8,28.5-85.1-7.4-81.2Z"/>
  <path class="st1" d="M458.4,212.2c-31.6,4.3-31.4,81.7,3.5,82,36.9.3,36.4-87.4-3.5-82Z"/>
</svg>